:FULLY-SPECIFIED
:FORCE-ALL-JOINTS-BE-3DOF
:DEGREES
204
root -2.89729 16.3091 -36.1145 3.77604 0.705599 -2.96456
lfemur -23.919 6.69043 -8.13659
ltibia 48.6555 0 0
lfoot -23.7999 0.413319 0
ltoes -9.78635 0 0
rfemur -23.81 -7.54118 14.7013
rtibia 50.6623 0 0
rfoot -27.6045 1.97981 0
rtoes -8.47747 0 0
lowerback 7.31402 1.95549 -1.6348
upperback -3.75936 2.54885 1.32239
thorax -8.2096 1.37632 1.94788
lowerneck -3.42401 -3.91147 -6.55694
upperneck 6.8676 -5.27655 5.99142
head 3.23759 -2.59914 2.9503
lclavicle 7.52581e-015 4.19657e-015 0
lhumerus -26.5613 -1.85944 88.8093
lradius 24.347 0 0
lwrist -31.339 0 0
lhand -28.2754 30.0661 0
lfingers 7.12502 0 0
lthumb -1.65193 60.0395 0
rclavicle 7.52581e-015 4.19657e-015 0
rhumerus -32.2891 1.97018 -79.876
rradius 30.4594 0 0
rwrist 3.15 0 0
rhand -19.8204 -27.0112 0
rfingers 7.12502 0 0
rthumb 6.51319 -56.891 0
205
root -2.89816 16.3068 -36.1133 3.76648 0.709372 -2.96299
lfemur -23.9252 6.70208 -8.13303
ltibia 48.6924 0 0
lfoot -23.821 0.410256 0
ltoes -9.80871 0 0
rfemur -23.8141 -7.55381 14.7003
rtibia 50.7012 0 0
rfoot -27.6274 1.97255 0
rtoes -8.51696 0 0
lowerback 7.31306 1.9574 -1.63386
upperback -3.75424 2.55135 1.32078
thorax -8.20351 1.37735 1.94539
lowerneck -3.42372 -3.9135 -6.5543
upperneck 6.86527 -5.27947 5.99259
head 3.23689 -2.60048 2.95006
lclavicle 7.6144e-015 2.5332e-015 0
lhumerus -26.5535 -1.87749 88.8271
lradius 24.354 0 0
lwrist -31.3287 0 0
lhand -28.2784 30.0622 0
lfingers 7.12502 0 0
lthumb -1.65486 60.0356 0
rclavicle 7.6144e-015 2.5332e-015 0
rhumerus -32.289 1.9747 -79.8758
rradius 30.465 0 0
rwrist 3.14362 0 0
rhand -19.8145 -27.0186 0
rfingers 7.12502 0 0
rthumb 6.51886 -56.8983 0
206
root -2.89904 16.3045 -36.1121 3.75682 0.713505 -2.96141
lfemur -23.9314 6.71337 -8.1297
ltibia 48.729 0 0
lfoot -23.8418 0.407061 0
ltoes -9.82989 0 0
rfemur -23.8179 -7.56605 14.6991
rtibia 50.7396 0 0
rfoot -27.65 1.96509 0
rtoes -8.55416 0 0
lowerback 7.31251 1.95901 -1.63304
upperback -3.74916 2.55344 1.31926
thorax -8.19769 1.37818 1.94311
lowerneck -3.42334 -3.91552 -6.55207
upperneck 6.86262 -5.28235 5.99411
head 3.23609 -2.6018 2.95002
lclavicle 7.68839e-015 9.53744e-016 0
lhumerus -26.546 -1.8943 88.844
lradius 24.3606 0 0
lwrist -31.3188 0 0
lhand -28.2812 30.0586 0
lfingers 7.12502 0 0
lthumb -1.65756 60.032 0
rclavicle 7.68839e-015 9.53744e-016 0
rhumerus -32.289 1.97848 -79.8752
rradius 30.4697 0 0
rwrist 3.13819 0 0
rhand -19.8092 -27.0255 0
rfingers 7.12502 0 0
rthumb 6.52402 -56.905 0
207
root -2.89992 16.3022 -36.1109 3.74708 0.718042 -2.95987
lfemur -23.9376 6.72427 -8.12653
ltibia 48.7653 0 0
lfoot -23.8624 0.403725 0
ltoes -9.84972 0 0
rfemur -23.8213 -7.57792 14.6977
rtibia 50.7775 0 0
rfoot -27.6722 1.95752 0
rtoes -8.58858 0 0
lowerback 7.31244 1.96025 -1.63234
upperback -3.74414 2.55502 1.31787
thorax -8.1922 1.37879 1.94108
lowerneck -3.42292 -3.9175 -6.55031
upperneck 6.85973 -5.28519 5.99597
head 3.23523 -2.60311 2.9502
lclavicle 7.7413e-015 -5.18531e-016 0
lhumerus -26.5389 -1.90959 88.8598
lradius 24.3669 0 0
lwrist -31.3093 0 0
lhand -28.2837 30.0554 0
lfingers 7.12502 0 0
lthumb -1.65996 60.0288 0
rclavicle 7.7413e-015 -5.18531e-016 0
rhumerus -32.2888 1.98145 -79.8741
rradius 30.4733 0 0
rwrist 3.1338 0 0
rhand -19.8045 -27.0316 0
rfingers 7.12502 0 0
rthumb 6.52858 -56.911 0
208
root -2.9008 16.3 -36.1097 3.73732 0.723027 -2.95845
lfemur -23.944 6.73474 -8.12347
ltibia 48.8013 0 0
lfoot -23.8829 0.400241 0
ltoes -9.868 0 0
rfemur -23.8245 -7.58941 14.6961
rtibia 50.8148 0 0
rfoot -27.694 1.94994 0
rtoes -8.61976 0 0
lowerback 7.31291 1.96107 -1.63174
upperback -3.73921 2.55605 1.31664
thorax -8.1871 1.37913 1.93936
lowerneck -3.42253 -3.91946 -6.54909
upperneck 6.85665 -5.28797 5.99821
head 3.23435 -2.60438 2.9506
lclavicle 7.76661e-015 -1.86034e-015 0
lhumerus -26.5322 -1.92309 88.8742
lradius 24.3726 0 0
lwrist -31.3004 0 0
lhand -28.2858 30.0527 0
lfingers 7.12502 0 0
lthumb -1.662 60.026 0
rclavicle 7.76661e-015 -1.86034e-015 0
rhumerus -32.2884 1.98356 -79.8726
rradius 30.4758 0 0
rwrist 3.13059 0 0
rhand -19.8004 -27.0368 0
rfingers 7.12502 0 0
rthumb 6.53247 -56.9161 0
209
root -2.90167 16.2977 -36.1085 3.72758 0.728501 -2.9572
lfemur -23.9507 6.74475 -8.12045
ltibia 48.8372 0 0
lfoot -23.9032 0.396599 0
ltoes -9.88457 0 0
rfemur -23.8274 -7.60054 14.6945
rtibia 50.8514 0 0
rfoot -27.7153 1.94242 0
rtoes -8.64724 0 0
lowerback 7.31398 1.96141 -1.63125
upperback -3.73438 2.55642 1.31561
thorax -8.18245 1.37917 1.93798
lowerneck -3.42222 -3.92137 -6.54846
upperneck 6.85343 -5.29067 6.00083
head 3.23347 -2.60562 2.95126
lclavicle 7.75784e-015 -3.04841e-015 0
lhumerus -26.526 -1.93452 88.8871
lradius 24.3777 0 0
lwrist -31.2923 0 0
lhand -28.2875 30.0505 0
lfingers 7.12502 0 0
lthumb -1.66362 60.0238 0
rclavicle 7.75784e-015 -3.04841e-015 0
rhumerus -32.2877 1.98476 -79.8708
rradius 30.4771 0 0
rwrist 3.12865 0 0
rhand -19.7972 -27.0411 0
rfingers 7.12502 0 0
rthumb 6.5356 -56.9204 0
